{
  "accessors": [
    {
      "bufferView": 2,
      "componentType": 5126,
      "count": 11605,
      "max": [
        0.39474570751190186,
        0.5002138018608093,
        0.3861120641231537
      ],
      "min": [
        -0.3902064263820648,
        -0.5007061958312988,
        -0.38116568326950073
      ],
      "type": "VEC3"
    },
    {
      "bufferView": 2,
      "byteOffset": 139260,
      "componentType": 5126,
      "count": 11605,
      "max": [
        0.9998105764389038,
        0.9999456405639648,
        0.9985847473144531
      ],
      "min": [
        -0.9995856285095215,
        -0.9999118447303772,
        -0.9995987415313721
      ],
      "type": "VEC3"
    },
    {
      "bufferView": 3,
      "componentType": 5126,
      "count": 11605,
      "max": [
        0.9997316598892212,
        0.9996674060821533,
        0.9999747276306152,
        1.0
      ],
      "min": [
        -0.9999882578849792,
        -0.999891459941864,
        -0.9998108148574829,
        -1.0
      ],
      "type": "VEC4"
    },
    {
      "bufferView": 1,
      "componentType": 5126,
      "count": 11605,
      "max": [
        1.0,
        1.0
      ],
      "min": [
        0.0,
        0.0
      ],
      "type": "VEC2"
    },
    {
      "bufferView": 1,
      "byteOffset": 92840,
      "componentType": 5126,
      "count": 11605,
      "max": [
        1.0,
        1.0
      ],
      "min": [
        0.0,
        0.0
      ],
      "type": "VEC2"
    },
    {
      "bufferView": 1,
      "byteOffset": 185680,
      "componentType": 5126,
      "count": 11605,
      "max": [
        1.0,
        1.0
      ],
      "min": [
        0.0,
        0.0
      ],
      "type": "VEC2"
    },
    {
      "bufferView": 1,
      "byteOffset": 278520,
      "componentType": 5126,
      "count": 11605,
      "max": [
        1.0,
        1.0
      ],
      "min": [
        0.0,
        0.0
      ],
      "type": "VEC2"
    },
    {
      "bufferView": 0,
      "componentType": 5125,
      "count": 52212,
      "type": "SCALAR"
    }
  ],
  "asset": {
    "extras": {
      "author": "RapidAssets (https://sketchfab.com/RapidAssets)",
      "license": "CC-BY-4.0 (http://creativecommons.org/licenses/by/4.0/)",
      "source": "https://sketchfab.com/3d-models/snarling-goblin-fighter-rapidassets-a4f7392d59c14d27a8836888eae4769b",
      "title": "Snarling Goblin Fighter [RapidAssets]"
    },
    "generator": "Sketchfab-17.22.0",
    "version": "2.0"
  },
  "bufferViews": [
    {
      "buffer": 0,
      "byteLength": 208848,
      "name": "floatBufferViews",
      "target": 34963
    },
    {
      "buffer": 0,
      "byteLength": 371360,
      "byteOffset": 208848,
      "byteStride": 8,
      "name": "floatBufferViews",
      "target": 34962
    },
    {
      "buffer": 0,
      "byteLength": 278520,
      "byteOffset": 580208,
      "byteStride": 12,
      "name": "floatBufferViews",
      "target": 34962
    },
    {
      "buffer": 0,
      "byteLength": 185680,
      "byteOffset": 858728,
      "byteStride": 16,
      "name": "floatBufferViews",
      "target": 34962
    }
  ],
  "buffers": [
    {
      "byteLength": 1044408,
      "uri": "scene.bin"
    }
  ],
  "images": [
    {
      "uri": "textures/tripo_material_876dd265-944c-41e7-b013-67a835f8072a_baseColor.jpeg"
    },
    {
      "uri": "textures/tripo_material_876dd265-944c-41e7-b013-67a835f8072a_metallicRoughness.png"
    },
    {
      "uri": "textures/tripo_material_876dd265-944c-41e7-b013-67a835f8072a_normal.jpeg"
    }
  ],
  "materials": [
    {
      "name": "tripo_material_876dd265-944c-41e7-b013-67a835f8072a",
      "normalTexture": {
        "index": 2
      },
      "pbrMetallicRoughness": {
        "baseColorTexture": {
          "index": 0
        },
        "metallicRoughnessTexture": {
          "index": 1
        }
      }
    }
  ],
  "meshes": [
    {
      "name": "Object_0",
      "primitives": [
        {
          "attributes": {
            "NORMAL": 1,
            "POSITION": 0,
            "TANGENT": 2,
            "TEXCOORD_0": 3,
            "TEXCOORD_1": 4,
            "TEXCOORD_2": 5,
            "TEXCOORD_3": 6
          },
          "indices": 7,
          "material": 0,
          "mode": 4
        }
      ]
    }
  ],
  "nodes": [
    {
      "children": [
        1
      ],
      "matrix": [
        1.0,
        0.0,
        0.0,
        0.0,
        0.0,
        2.220446049250313e-16,
        -1.0,
        0.0,
        0.0,
        1.0,
        2.220446049250313e-16,
        0.0,
        0.0,
        0.0,
        0.0,
        1.0
      ],
      "name": "Sketchfab_model"
    },
    {
      "children": [
        2
      ],
      "name": "root"
    },
    {
      "children": [
        3
      ],
      "matrix": [
        1.0,
        0.0,
        0.0,
        0.0,
        0.0,
        2.220446049250313e-16,
        1.0,
        0.0,
        0.0,
        -1.0,
        2.220446049250313e-16,
        0.0,
        0.0,
        0.0,
        0.0,
        1.0
      ],
      "name": "GLTF_SceneRootNode"
    },
    {
      "children": [
        4
      ],
      "name": "tripo_node_876dd265-944c-41e7-b013-67a835f8072a_0"
    },
    {
      "mesh": 0,
      "name": "Object_4"
    }
  ],
  "samplers": [
    {
      "magFilter": 9729,
      "minFilter": 9987,
      "wrapS": 10497,
      "wrapT": 10497
    }
  ],
  "scene": 0,
  "scenes": [
    {
      "name": "Sketchfab_Scene",
      "nodes": [
        0
      ]
    }
  ],
  "textures": [
    {
      "sampler": 0,
      "source": 0
    },
    {
      "sampler": 0,
      "source": 1
    },
    {
      "sampler": 0,
      "source": 2
    }
  ]
}
